<svg xmlns="http://www.w3.org/2000/svg" xmlns:xlink="http://www.w3.org/1999/xlink" width="500" zoomAndPan="magnify" viewBox="0 0 375 374.999991" height="500" preserveAspectRatio="xMidYMid meet" version="1.0"><defs><clipPath id="id1"><path d="M 59.160156 103.277344 L 315.660156 103.277344 L 315.660156 272 L 59.160156 272 Z M 59.160156 103.277344 " clip-rule="nonzero"/></clipPath></defs><rect x="-37.5" width="450" fill="#ffffff" y="-37.499999" height="449.999989" fill-opacity="1"/><rect x="-37.5" width="450" fill="#111111" y="-37.499999" height="449.999989" fill-opacity="1"/><rect x="-37.5" width="450" fill="#ffffff" y="-37.499999" height="449.999989" fill-opacity="1"/><rect x="-37.5" width="450" fill="#111111" y="-37.499999" height="449.999989" fill-opacity="1"/><g clip-path="url(#id1)"><path fill="#15be15" d="M 315.394531 269.179688 L 257.851562 269.179688 C 246.78125 269.179688 235.5 268.101562 224.859375 265.03125 C 214.4375 261.960938 205.089844 256.304688 196.4375 249.789062 C 179.730469 265.246094 158.667969 271.980469 135.1875 271.980469 C 114.125 271.980469 95.429688 265.246094 80.492188 249.789062 C 66.09375 235.027344 59.160156 217.414062 59.160156 196.730469 C 59.160156 181.699219 63.082031 167.101562 69.371094 153.421875 C 76.300781 138.609375 86.9375 126.648438 100.425781 117.492188 C 115.199219 107.472656 131.910156 103.539062 149.695312 103.539062 C 168.390625 103.539062 185.746094 108.335938 200.089844 119.863281 C 202.242188 118.355469 204.660156 116.792969 207.023438 115.5 C 221.582031 107.042969 237.648438 103.324219 254.574219 103.324219 C 271.710938 103.324219 288.636719 107.472656 304.539062 113.773438 L 309.320312 127.296875 C 295.40625 112.050781 274.34375 104.402344 254.359375 104.402344 C 235.015625 104.402344 218.519531 111.136719 205.304688 124.441406 C 219.863281 138.609375 226.792969 156.007812 226.792969 176.476562 C 226.792969 202.386719 219.003906 225.441406 201.597656 244.402344 C 201.167969 244.832031 200.738281 245.261719 200.304688 245.910156 C 211.589844 257.652344 224.214844 263.308594 240.925781 266.164062 C 247.210938 267.242188 253.980469 268.101562 260.484375 268.101562 C 263.117188 268.101562 269.402344 267.886719 275.472656 267.457031 C 281.328125 267.242188 287.832031 266.378906 290.464844 264.601562 C 292.613281 263.09375 293.742188 260.667969 294.171875 258.515625 C 294.816406 256.144531 294.816406 253.71875 294.816406 251.78125 L 294.816406 226.519531 C 294.816406 220.863281 293.527344 216.714844 290.035156 214.558594 L 315.660156 214.558594 C 311.523438 216.714844 310.664062 221.292969 310.664062 228.078125 L 310.664062 254.421875 C 310.609375 259.644531 310.828125 266.164062 315.394531 269.179688 Z M 195.09375 248.765625 C 176.667969 233.734375 163.394531 210.035156 163.394531 186.0625 C 163.394531 172.113281 167.746094 159.078125 174.679688 147.117188 C 178.386719 141.03125 182.46875 135.375 187.464844 130.367188 C 182.898438 126.648438 178.117188 123.417969 172.90625 120.5625 C 161.191406 114.042969 147.921875 109.25 134.273438 109.25 C 116.703125 109.25 101.5 116.199219 88.875 128.210938 C 75.171875 141.03125 68.457031 156.921875 68.457031 175.882812 C 68.457031 200.070312 76.945312 221.398438 93.226562 239.015625 C 108 255.335938 126.214844 266.433594 149.050781 266.433594 C 165.972656 266.378906 182.253906 259.644531 195.09375 248.765625 Z M 199.445312 244.617188 C 211.804688 232.226562 219.648438 215.207031 219.648438 196.945312 C 219.648438 173.890625 210.300781 152.988281 195.09375 137.316406 C 184.671875 153.207031 180.320312 171.25 180.320312 190.644531 C 180.320312 199.585938 181.179688 208.902344 183.597656 217.628906 C 186.230469 226.570312 190.957031 234.382812 196.652344 241.332031 C 197.460938 242.40625 198.320312 243.539062 199.445312 244.617188 Z M 199.445312 244.617188 " fill-opacity="1" fill-rule="nonzero"/></g></svg>